<svg xmlns="http://www.w3.org/2000/svg" width="1200" height="380" viewBox="0 0 1200 380" role="img" aria-label="Abstract paths, open contours, and connected geometric facets">
<rect class="ground" width="1200" height="380" fill="#172722"/>
<g class="thread" fill="none" stroke="#a7ced9" stroke-width="1.6" opacity=".55"><path d="M70 90L405 145M90 300L435 240M1110 80L760 145M1100 290L765 240"/><path d="M15 345Q450 275 1170 345" opacity=".25"/></g>
<g class="thread" stroke="#a7ced9" fill="none" stroke-width="1.2"><path d="M430 90Q650 5 820 150M835 245Q630 365 415 270M470 110Q650 55 760 150M765 235Q610 310 455 235"/></g><g class="facet" transform="translate(575 190)"><path class="sage" fill="#416775" fill-opacity=".72" d="M0 -48L52 0L0 48L-48 0Z"/><path class="clay" fill="#65816a" fill-opacity=".58" d="M0 -48L48 -94L96 -48L52 0Z"/><path class="thread" fill="none" stroke="#a7ced9" stroke-width="1.5" d="M-48 0L0 48L52 0L96 48L48 94L0 48M0 -48L52 0L96 -48"/></g><g class="facet" transform="translate(700 210)"><path class="ink" fill="#416775" fill-opacity=".72" d="M0 -48L52 0L0 48L-48 0Z"/><path class="sage" fill="#65816a" fill-opacity=".58" d="M0 -48L48 -94L96 -48L52 0Z"/><path class="thread" fill="none" stroke="#a7ced9" stroke-width="1.5" d="M-48 0L0 48L52 0L96 48L48 94L0 48M0 -48L52 0L96 -48"/></g><g class="facet" fill="#ad684d" opacity=".65"><path class="clay" d="M60 320L81 299L99 330Z"/><path class="sage" d="M1100 45L1127 67L1088 80Z"/></g></svg>
