<svg xmlns="http://www.w3.org/2000/svg" width="1200" height="630" viewBox="0 0 1200 630">
<rect width="1200" height="630" fill="#0f172a"/>
<!-- Cloud shape -->
<g fill="none" stroke="#10b981" stroke-width="2" opacity="0.5">
  <path d="M400,280 A80,80 0 0,1 480,200 A100,100 0 0,1 650,180 A90,90 0 0,1 780,250 A60,60 0 0,1 820,320 L400,320 A80,80 0 0,1 400,280Z"/>
  <path d="M350,320 A100,100 0 0,1 430,230 A120,120 0 0,1 650,200 A110,110 0 0,1 820,280 A80,80 0 0,1 870,360 L350,360 A100,100 0 0,1 350,320Z"/>
</g>
<!-- Shield inside cloud -->
<g fill="none" stroke="#34d399" stroke-width="2.5" opacity="0.8">
  <path d="M600,250 C600,250 670,270 670,330 C670,410 600,440 600,440 C600,440 530,410 530,330 C530,270 600,250 600,250Z"/>
</g>
<!-- Lock inside shield -->
<g fill="none" stroke="#6ee7b7" stroke-width="2">
  <rect x="585" y="330" width="30" height="24" rx="4"/>
  <path d="M592,330 L592,320 A8,8 0 0,1 608,320 L608,330"/>
</g>
<!-- Network lines below -->
<g stroke="#059669" stroke-width="1" opacity="0.3">
  <line x1="300" y1="500" x2="500" y2="450"/><line x1="500" y1="450" x2="700" y2="500"/>
  <line x1="700" y1="500" x2="900" y2="450"/><line x1="400" y1="550" x2="600" y2="500"/>
  <line x1="600" y1="500" x2="800" y2="550"/>
</g>
<g fill="#10b981" opacity="0.4">
  <circle cx="300" cy="500" r="5"/><circle cx="500" cy="450" r="5"/><circle cx="700" cy="500" r="5"/>
  <circle cx="900" cy="450" r="5"/><circle cx="400" cy="550" r="5"/><circle cx="600" cy="500" r="5"/>
  <circle cx="800" cy="550" r="5"/>
</g>
</svg>
