<svg xmlns="http://www.w3.org/2000/svg" width="1200" height="630" viewBox="0 0 1200 630">
<rect width="1200" height="630" fill="#0f172a"/>
<!-- 13 vertical bars representing 13 posts -->
<g fill="#4f46e5" opacity="0.3">
  <rect x="150" y="200" width="20" height="300" rx="4"/>
  <rect x="220" y="200" width="20" height="300" rx="4"/>
  <rect x="290" y="200" width="20" height="300" rx="4"/>
  <rect x="360" y="200" width="20" height="300" rx="4"/>
  <rect x="430" y="200" width="20" height="300" rx="4"/>
  <rect x="500" y="200" width="20" height="300" rx="4"/>
  <rect x="570" y="200" width="20" height="300" rx="4"/>
  <rect x="640" y="200" width="20" height="300" rx="4"/>
  <rect x="710" y="200" width="20" height="300" rx="4"/>
  <rect x="780" y="200" width="20" height="300" rx="4"/>
  <rect x="850" y="200" width="20" height="300" rx="4"/>
  <rect x="920" y="200" width="20" height="300" rx="4"/>
  <rect x="990" y="200" width="20" height="300" rx="4"/>
</g>
<!-- Human-AI loop -->
<g fill="none" stroke="#818cf8" stroke-width="2" opacity="0.6">
  <path d="M150,180 Q580,80 1010,180"/>
  <circle cx="580" cy="130" r="25"/>
</g>
<!-- Loop arrows -->
<g fill="none" stroke="#a5b4fc" stroke-width="1.5" opacity="0.5">
  <path d="M555,130 A25,25 0 1,1 580,155" stroke-dasharray="4,3"/>
  <path d="M605,130 A25,25 0 1,0 580,105" stroke-dasharray="4,3"/>
</g>
</svg>
